<?xml version="1.0" standalone="no"?>
<!DOCTYPE svg PUBLIC "-//W3C//DTD SVG 20010904//EN"
 "http://www.w3.org/TR/2001/REC-SVG-20010904/DTD/svg10.dtd">
<svg version="1.0" xmlns="http://www.w3.org/2000/svg"
 width="120.000000pt" height="25.000000pt" viewBox="0 0 120.000000 25.000000"
 preserveAspectRatio="xMidYMid meet">

<g transform="translate(0.000000,25.000000) scale(0.100000,-0.100000)"
fill="#000000" stroke="none">
<path d="M10 140 c0 -73 3 -90 15 -90 10 0 15 10 15 29 0 16 7 34 15 41 12 10
18 6 35 -22 11 -18 20 -36 20 -40 0 -5 7 -8 15 -8 20 0 19 2 -12 59 l-27 48
27 37 c21 26 24 36 13 36 -8 0 -31 -21 -51 -46 l-35 -47 0 47 c0 34 -4 46 -15
46 -12 0 -15 -17 -15 -90z"/>
<path d="M662 214 c-18 -13 -22 -25 -22 -74 0 -49 4 -61 22 -74 46 -33 98 -7
98 47 0 23 -4 27 -30 27 -16 0 -30 -4 -30 -10 0 -5 9 -10 20 -10 22 0 26 -20
8 -38 -32 -32 -68 -1 -68 58 0 17 5 40 10 51 13 23 48 25 56 4 7 -16 34 -21
34 -6 0 13 -41 41 -60 41 -9 0 -26 -7 -38 -16z"/>
<path d="M1070 140 c0 -53 4 -90 10 -90 6 0 10 8 10 19 0 10 6 24 14 30 12 10
18 6 32 -18 10 -17 24 -31 32 -31 10 0 8 9 -7 34 -25 40 -26 54 -4 78 14 16
14 18 1 18 -9 0 -23 -11 -32 -25 -25 -38 -36 -30 -36 25 0 28 -4 50 -10 50 -6
0 -10 -37 -10 -90z"/>
<path d="M188 169 c-13 -7 -18 -23 -18 -54 0 -50 23 -71 66 -61 35 9 29 24 -8
22 -23 -1 -33 4 -36 17 -3 14 4 17 37 17 33 0 41 4 41 18 0 22 -30 52 -51 52
-8 0 -22 -5 -31 -11z m52 -24 c11 -13 8 -15 -19 -15 -30 0 -39 9 -24 23 11 11
30 8 43 -8z"/>
<path d="M318 169 c-13 -7 -18 -23 -18 -54 0 -50 23 -71 66 -61 35 9 29 24 -8
22 -23 -1 -33 4 -36 17 -3 14 4 17 37 17 33 0 41 4 41 18 0 22 -30 52 -51 52
-8 0 -22 -5 -31 -11z m52 -24 c11 -13 8 -15 -19 -15 -30 0 -39 9 -24 23 11 11
30 8 43 -8z"/>
<path d="M440 88 c0 -52 4 -88 10 -88 6 0 10 12 10 28 0 24 4 27 33 27 31 0
32 1 35 48 4 59 -8 75 -53 74 l-35 -1 0 -88z m68 23 c-2 -28 -7 -36 -23 -36
-15 0 -21 8 -23 34 -4 35 11 53 35 44 9 -4 13 -18 11 -42z"/>
<path d="M818 169 c-13 -7 -18 -23 -18 -54 0 -50 23 -71 66 -61 35 9 29 24 -8
22 -23 -1 -33 4 -36 17 -3 14 4 17 37 17 33 0 41 4 41 18 0 22 -30 52 -51 52
-8 0 -22 -5 -31 -11z m52 -24 c11 -13 8 -15 -19 -15 -30 0 -39 9 -24 23 11 11
30 8 43 -8z"/>
<path d="M947 162 c-22 -25 -21 -75 1 -95 22 -20 55 -22 71 -4 15 19 3 28 -21
14 -16 -10 -22 -9 -34 8 -14 19 -13 20 25 23 35 3 41 7 41 26 0 45 -52 63 -83
28z m61 -19 c2 -8 -6 -13 -22 -13 -25 0 -33 10 -19 24 10 10 36 3 41 -11z"/>
</g>
</svg>
